<svg width="13" height="13" viewBox="0 0 13 13" fill="none" xmlns="http://www.w3.org/2000/svg">
<path d="M11.3887 7.1707C11.2452 7.1707 11.0951 7.1249 10.9516 7.09219C10.661 7.02796 10.3754 6.94269 10.0971 6.83704C9.79443 6.72662 9.46177 6.73236 9.16311 6.85314C8.86444 6.97392 8.62086 7.20121 8.47925 7.49128L8.33574 7.78569C7.70036 7.43121 7.1165 6.99094 6.60051 6.4772C6.08827 5.95971 5.64928 5.37415 5.29582 4.73692L5.56981 4.55373C5.85903 4.41171 6.08567 4.16742 6.2061 3.86789C6.32653 3.56835 6.33224 3.23472 6.22215 2.93121C6.11857 2.65147 6.03358 2.36516 5.96773 2.07416C5.93512 1.93022 5.90902 1.77975 5.88945 1.62927C5.81023 1.16844 5.56956 0.751109 5.21077 0.452446C4.85198 0.153782 4.39865 -0.00659073 3.93243 0.000207593H1.9754C1.69426 -0.00243982 1.41585 0.0556961 1.15913 0.170658C0.902409 0.285619 0.673398 0.454707 0.487689 0.666411C0.301981 0.878114 0.163935 1.12746 0.0829487 1.39748C0.0019627 1.6675 -0.0200618 1.95185 0.0183746 2.23117C0.365902 4.97204 1.61402 7.51868 3.56558 9.46882C5.51714 11.419 8.06091 12.6614 10.7951 13H11.043C11.524 13.0007 11.9885 12.8237 12.3476 12.5028C12.554 12.3177 12.7189 12.0907 12.8313 11.837C12.9438 11.5832 13.0013 11.3084 13 11.0307V9.068C12.992 8.61356 12.827 8.17598 12.5331 7.82996C12.2393 7.48394 11.8348 7.25093 11.3887 7.1707ZM11.7149 11.0962C11.7147 11.189 11.6949 11.2808 11.6567 11.3655C11.6184 11.4501 11.5627 11.5255 11.4931 11.5868C11.4202 11.65 11.3349 11.6971 11.2428 11.7253C11.1507 11.7534 11.0538 11.762 10.9582 11.7504C8.51507 11.4362 6.24579 10.3153 4.50826 8.56443C2.77073 6.81355 1.66385 4.53236 1.3622 2.0807C1.35182 1.98486 1.36092 1.88791 1.38895 1.7957C1.41698 1.7035 1.46336 1.61794 1.52528 1.54422C1.58642 1.47443 1.66166 1.4185 1.74602 1.38015C1.83038 1.34179 1.92192 1.32189 2.01454 1.32178H3.97157C4.12327 1.31839 4.2714 1.36815 4.39046 1.46249C4.50953 1.55682 4.59208 1.68983 4.62391 1.83863C4.65 2.01745 4.68262 2.1941 4.72176 2.36856C4.79712 2.71344 4.89741 3.05236 5.02184 3.38264L4.10856 3.8079C4.03047 3.84383 3.96023 3.89488 3.90187 3.95811C3.84351 4.02134 3.79818 4.09551 3.76847 4.17636C3.73877 4.25721 3.72529 4.34315 3.7288 4.42924C3.7323 4.51534 3.75273 4.59989 3.78891 4.67804C4.72776 6.69491 6.34429 8.31615 8.35531 9.25773C8.51413 9.32317 8.69227 9.32317 8.85109 9.25773C8.93244 9.22855 9.0072 9.18345 9.07104 9.12504C9.13487 9.06664 9.18649 8.99611 9.22292 8.91753L9.62737 8.00159C9.96461 8.12254 10.3088 8.22304 10.6581 8.30254C10.832 8.34179 11.0082 8.37451 11.1865 8.40068C11.3348 8.4326 11.4675 8.51539 11.5615 8.6348C11.6556 8.75421 11.7052 8.90278 11.7018 9.05492L11.7149 11.0962Z" fill="#3C3C3C"/>
<path d="M0.866211 3.03337V1.30003H3.46621L4.33288 0.866699L4.76621 1.73337L5.19954 2.1667V3.4667H4.76621L4.33288 3.90003V4.33337V4.7667L5.19954 6.0667L7.79954 8.6667H8.66621L9.09954 7.80003H9.96621L11.2662 8.23337L11.6995 8.6667L12.1329 9.9667L11.6995 11.7L10.8329 12.1334L7.79954 11.2667L5.19954 9.53337L2.16621 6.93337L0.866211 3.03337Z" fill="#3C3C3C" stroke="#3C3C3C"/>
</svg>
