<svg width="14" height="12" viewBox="0 0 14 12" fill="none" xmlns="http://www.w3.org/2000/svg">
<path d="M6 1H1.5L1 1.5V11H13V3.5L12.5 3H7L6 1Z" fill="#3C3C3C" stroke="#3C3C3C"/>
<path d="M11.9 1.89475H7.504L7.28 1.26317C7.13479 0.89258 6.86542 0.57191 6.50923 0.345589C6.15304 0.119268 5.72765 -0.0015012 5.292 1.40865e-05H2.1C1.54305 1.40865e-05 1.0089 0.199637 0.615076 0.554969C0.221249 0.910301 0 1.39223 0 1.89475V10.1053C0 10.6078 0.221249 11.0897 0.615076 11.445C1.0089 11.8004 1.54305 12 2.1 12H11.9C12.457 12 12.9911 11.8004 13.3849 11.445C13.7788 11.0897 14 10.6078 14 10.1053V3.78948C14 3.28697 13.7788 2.80504 13.3849 2.4497C12.9911 2.09437 12.457 1.89475 11.9 1.89475ZM12.6 10.1053C12.6 10.2728 12.5263 10.4334 12.395 10.5519C12.2637 10.6703 12.0857 10.7368 11.9 10.7368H2.1C1.91435 10.7368 1.7363 10.6703 1.60503 10.5519C1.47375 10.4334 1.4 10.2728 1.4 10.1053V1.89475C1.4 1.72724 1.47375 1.5666 1.60503 1.44816C1.7363 1.32971 1.91435 1.26317 2.1 1.26317H5.292C5.43875 1.26283 5.58191 1.30411 5.70124 1.38118C5.82057 1.45824 5.91004 1.5672 5.957 1.69264L6.335 2.72843C6.38196 2.85388 6.47143 2.96283 6.59076 3.0399C6.71009 3.11697 6.85325 3.15825 7 3.1579H11.9C12.0857 3.1579 12.2637 3.22445 12.395 3.34289C12.5263 3.46133 12.6 3.62198 12.6 3.78948V10.1053Z" fill="#3C3C3C"/>
</svg>
