<svg width="21" height="21" viewBox="0 0 21 21" fill="none" xmlns="http://www.w3.org/2000/svg">
<circle cx="10.5" cy="10.5" r="10.5" fill="white"/>
<path d="M8.72727 11.45C8.6104 11.45 8.49616 11.4881 8.39898 11.5595C8.30181 11.631 8.22607 11.7325 8.18134 11.8513C8.13662 11.97 8.12492 12.1007 8.14772 12.2268C8.17052 12.3529 8.2268 12.4687 8.30944 12.5596C8.39208 12.6505 8.49737 12.7124 8.61199 12.7375C8.72662 12.7626 8.84543 12.7497 8.9534 12.7005C9.06138 12.6513 9.15367 12.568 9.2186 12.4611C9.28353 12.3542 9.31818 12.2286 9.31818 12.1C9.31818 11.9276 9.25593 11.7623 9.14511 11.6404C9.03429 11.5185 8.88399 11.45 8.72727 11.45ZM4.59091 10.8C4.43419 10.8 4.28389 10.8685 4.17307 10.9904C4.06226 11.1123 4 11.2776 4 11.45V12.75C4 12.9224 4.06226 13.0877 4.17307 13.2096C4.28389 13.3315 4.43419 13.4 4.59091 13.4C4.74763 13.4 4.89793 13.3315 5.00874 13.2096C5.11956 13.0877 5.18182 12.9224 5.18182 12.75V11.45C5.18182 11.2776 5.11956 11.1123 5.00874 10.9904C4.89793 10.8685 4.74763 10.8 4.59091 10.8ZM16.4091 10.8C16.2524 10.8 16.1021 10.8685 15.9913 10.9904C15.8804 11.1123 15.8182 11.2776 15.8182 11.45V12.75C15.8182 12.9224 15.8804 13.0877 15.9913 13.2096C16.1021 13.3315 16.2524 13.4 16.4091 13.4C16.5658 13.4 16.7161 13.3315 16.8269 13.2096C16.9377 13.0877 17 12.9224 17 12.75V11.45C17 11.2776 16.9377 11.1123 16.8269 10.9904C16.7161 10.8685 16.5658 10.8 16.4091 10.8ZM13.4545 6.25H11.0909V5.418C11.2695 5.30457 11.418 5.14169 11.5217 4.94556C11.6254 4.74943 11.6806 4.52687 11.6818 4.3C11.6818 3.95522 11.5573 3.62456 11.3357 3.38076C11.114 3.13696 10.8134 3 10.5 3C10.1866 3 9.88596 3.13696 9.66433 3.38076C9.44269 3.62456 9.31818 3.95522 9.31818 4.3C9.31943 4.52687 9.37462 4.74943 9.47829 4.94556C9.58195 5.14169 9.73047 5.30457 9.90909 5.418V6.25H7.54545C7.0753 6.25 6.6244 6.45545 6.29195 6.82114C5.9595 7.18684 5.77273 7.68283 5.77273 8.2V14.05C5.77273 14.5672 5.9595 15.0632 6.29195 15.4289C6.6244 15.7946 7.0753 16 7.54545 16H13.4545C13.9247 16 14.3756 15.7946 14.7081 15.4289C15.0405 15.0632 15.2273 14.5672 15.2273 14.05V8.2C15.2273 7.68283 15.0405 7.18684 14.7081 6.82114C14.3756 6.45545 13.9247 6.25 13.4545 6.25ZM11.5164 7.55L11.2209 8.85H9.77909L9.48364 7.55H11.5164ZM14.0455 14.05C14.0455 14.2224 13.9832 14.3877 13.8724 14.5096C13.7616 14.6315 13.6113 14.7 13.4545 14.7H7.54545C7.38874 14.7 7.23844 14.6315 7.12762 14.5096C7.0168 14.3877 6.95455 14.2224 6.95455 14.05V8.2C6.95455 8.02761 7.0168 7.86228 7.12762 7.74038C7.23844 7.61848 7.38874 7.55 7.54545 7.55H8.26636L8.72727 9.656C8.75963 9.80022 8.83591 9.9279 8.94342 10.0178C9.05094 10.1077 9.1832 10.1543 9.31818 10.15H11.6818C11.8168 10.1543 11.9491 10.1077 12.0566 10.0178C12.1641 9.9279 12.2404 9.80022 12.2727 9.656L12.7336 7.55H13.4545C13.6113 7.55 13.7616 7.61848 13.8724 7.74038C13.9832 7.86228 14.0455 8.02761 14.0455 8.2V14.05ZM12.2727 11.45C12.1559 11.45 12.0416 11.4881 11.9444 11.5595C11.8473 11.631 11.7715 11.7325 11.7268 11.8513C11.6821 11.97 11.6704 12.1007 11.6932 12.2268C11.716 12.3529 11.7723 12.4687 11.8549 12.5596C11.9375 12.6505 12.0428 12.7124 12.1574 12.7375C12.2721 12.7626 12.3909 12.7497 12.4989 12.7005C12.6068 12.6513 12.6991 12.568 12.7641 12.4611C12.829 12.3542 12.8636 12.2286 12.8636 12.1C12.8636 11.9276 12.8014 11.7623 12.6906 11.6404C12.5797 11.5185 12.4294 11.45 12.2727 11.45Z" fill="#3C3C3C"/>
</svg>
