<svg width="46" height="13" viewBox="0 0 46 13" fill="none" xmlns="http://www.w3.org/2000/svg">
<path d="M0.504 0.799999H5.4C6.59467 0.799999 7.656 1.03467 8.584 1.504C9.512 1.96267 10.232 2.61867 10.744 3.472C11.256 4.31467 11.512 5.29067 11.512 6.4C11.512 7.50933 11.256 8.49067 10.744 9.344C10.232 10.1867 9.512 10.8427 8.584 11.312C7.656 11.7707 6.59467 12 5.4 12H0.504V0.799999ZM5.304 10.24C6.12533 10.24 6.84533 10.0853 7.464 9.776C8.09333 9.456 8.57333 9.008 8.904 8.432C9.24533 7.84533 9.416 7.168 9.416 6.4C9.416 5.632 9.24533 4.96 8.904 4.384C8.57333 3.79733 8.09333 3.34933 7.464 3.04C6.84533 2.72 6.12533 2.56 5.304 2.56H2.584V10.24H5.304ZM21.8828 10.256V12H13.4828V0.799999H21.6588V2.544H15.5628V5.456H20.9708V7.168H15.5628V10.256H21.8828ZM27.4335 12.16C26.5695 12.16 25.7322 12.0373 24.9215 11.792C24.1215 11.5467 23.4868 11.2213 23.0175 10.816L23.7375 9.2C24.1962 9.56267 24.7562 9.86133 25.4175 10.096C26.0895 10.32 26.7615 10.432 27.4335 10.432C28.2655 10.432 28.8842 10.2987 29.2895 10.032C29.7055 9.76533 29.9135 9.41333 29.9135 8.976C29.9135 8.656 29.7962 8.39467 29.5615 8.192C29.3375 7.97867 29.0495 7.81333 28.6975 7.696C28.3455 7.57867 27.8655 7.44533 27.2575 7.296C26.4042 7.09333 25.7108 6.89067 25.1775 6.688C24.6548 6.48533 24.2015 6.17067 23.8175 5.744C23.4442 5.30667 23.2575 4.72 23.2575 3.984C23.2575 3.36533 23.4228 2.80533 23.7535 2.304C24.0948 1.792 24.6015 1.38667 25.2735 1.088C25.9562 0.789333 26.7882 0.639999 27.7695 0.639999C28.4522 0.639999 29.1242 0.725333 29.7855 0.896C30.4468 1.06667 31.0175 1.312 31.4975 1.632L30.8415 3.248C30.3508 2.96 29.8388 2.74133 29.3055 2.592C28.7722 2.44267 28.2548 2.368 27.7535 2.368C26.9322 2.368 26.3188 2.50667 25.9135 2.784C25.5188 3.06133 25.3215 3.42933 25.3215 3.888C25.3215 4.208 25.4335 4.46933 25.6575 4.672C25.8922 4.87467 26.1855 5.03467 26.5375 5.152C26.8895 5.26933 27.3695 5.40267 27.9775 5.552C28.8095 5.744 29.4922 5.94667 30.0255 6.16C30.5588 6.36267 31.0122 6.67733 31.3855 7.104C31.7695 7.53067 31.9615 8.10667 31.9615 8.832C31.9615 9.45067 31.7908 10.0107 31.4495 10.512C31.1188 11.0133 30.6122 11.4133 29.9295 11.712C29.2468 12.0107 28.4148 12.16 27.4335 12.16ZM39.016 12.16C37.8747 12.16 36.8453 11.9147 35.928 11.424C35.0107 10.9227 34.2907 10.2347 33.768 9.36C33.2453 8.47467 32.984 7.488 32.984 6.4C32.984 5.312 33.2453 4.33067 33.768 3.456C34.2907 2.57067 35.0107 1.88267 35.928 1.392C36.8453 0.890666 37.8747 0.639999 39.016 0.639999C40.1573 0.639999 41.1867 0.890666 42.104 1.392C43.0213 1.88267 43.7413 2.56533 44.264 3.44C44.7867 4.31467 45.048 5.30133 45.048 6.4C45.048 7.49867 44.7867 8.48533 44.264 9.36C43.7413 10.2347 43.0213 10.9227 42.104 11.424C41.1867 11.9147 40.1573 12.16 39.016 12.16ZM39.016 10.336C39.7627 10.336 40.4347 10.1707 41.032 9.84C41.6293 9.49867 42.0987 9.02933 42.44 8.432C42.7813 7.824 42.952 7.14667 42.952 6.4C42.952 5.65333 42.7813 4.98133 42.44 4.384C42.0987 3.776 41.6293 3.30667 41.032 2.976C40.4347 2.63467 39.7627 2.464 39.016 2.464C38.2693 2.464 37.5973 2.63467 37 2.976C36.4027 3.30667 35.9333 3.776 35.592 4.384C35.2507 4.98133 35.08 5.65333 35.08 6.4C35.08 7.14667 35.2507 7.824 35.592 8.432C35.9333 9.02933 36.4027 9.49867 37 9.84C37.5973 10.1707 38.2693 10.336 39.016 10.336Z" fill="black"/>
</svg>
