<svg width="20" height="21" viewBox="0 0 20 21" fill="none" xmlns="http://www.w3.org/2000/svg">
<path d="M18.7491 7.67993L10.3991 1.13794C10.2852 1.04774 10.1443 0.998657 9.99909 0.998657C9.85387 0.998657 9.71288 1.04774 9.59907 1.13794L1.24805 7.67993C1.16997 7.7414 1.10683 7.81981 1.06336 7.90918C1.01989 7.99855 0.997232 8.09654 0.997078 8.19592V18.476C0.99548 19.1426 1.25827 19.7826 1.72785 20.2557C2.19743 20.7289 2.83548 20.9966 3.50208 21H16.4921C17.1587 20.9966 17.7967 20.7289 18.2663 20.2557C18.7359 19.7826 18.9987 19.1426 18.9971 18.476V8.19592C18.9974 8.09678 18.9752 7.99891 18.9323 7.90955C18.8893 7.82018 18.8267 7.74165 18.7491 7.67993ZM12.0001 19.6909H8.00007V12.111H12.0001V19.6909ZM17.7001 18.476C17.7009 18.7969 17.5744 19.105 17.3483 19.3328C17.1222 19.5605 16.815 19.6893 16.4941 19.6909H13.2941V11.457C13.2943 11.3714 13.2777 11.2865 13.2452 11.2073C13.2127 11.1281 13.1649 11.0561 13.1045 10.9954C13.0441 10.9346 12.9724 10.8864 12.8934 10.8534C12.8144 10.8204 12.7297 10.8032 12.6441 10.803H7.34406C7.25849 10.8032 7.1738 10.8204 7.09486 10.8534C7.01591 10.8864 6.94426 10.9346 6.88398 10.9954C6.8237 11.0561 6.77601 11.1282 6.7436 11.2074C6.71118 11.2866 6.69468 11.3715 6.69508 11.457V19.6909H3.49506C3.17414 19.6893 2.86696 19.5605 2.64088 19.3328C2.41479 19.105 2.28827 18.7969 2.28907 18.476V8.51697L9.98908 2.48303L17.6891 8.51697L17.7001 18.476Z" fill="#FF7F6C"/>
</svg>
