<svg width="13" height="13" viewBox="0 0 13 13" fill="none" xmlns="http://www.w3.org/2000/svg">
<path d="M6.5 1L1 5V12.5H12V5L6.5 1Z" fill="#5E5F68"/>
<path d="M5.5 7.5C4.3 7.5 4 8.83333 4 9.5C4 10.3333 4.1 12 4.5 12H8.5V11V8.5C8.5 8.1 8.16667 7.66667 8 7.5H5.5Z" fill="white"/>
<path d="M12.2778 3.91088L7.94446 0.495962C7.54722 0.176574 7.03297 0 6.50002 0C5.96707 0 5.45282 0.176574 5.05559 0.495962L0.722286 3.91088C0.492887 4.0953 0.309827 4.32155 0.185297 4.57454C0.0607663 4.82753 -0.00237794 5.10147 6.84619e-05 5.37812V11.0523C6.84619e-05 11.5689 0.22834 12.0643 0.634666 12.4295C1.04099 12.7948 1.59209 13 2.16672 13H10.8333C11.408 13 11.9591 12.7948 12.3654 12.4295C12.7717 12.0643 13 11.5689 13 11.0523V5.37163C13.0014 5.09607 12.9378 4.82339 12.8133 4.57158C12.6888 4.31977 12.5062 4.09458 12.2778 3.91088ZM7.94446 11.7016H5.05559V8.45544C5.05559 8.28325 5.13168 8.11812 5.26712 7.99637C5.40256 7.87462 5.58626 7.80621 5.7778 7.80621H7.22224C7.41378 7.80621 7.59748 7.87462 7.73292 7.99637C7.86837 8.11812 7.94446 8.28325 7.94446 8.45544V11.7016ZM11.5555 11.0523C11.5555 11.2245 11.4795 11.3896 11.344 11.5114C11.2086 11.6332 11.0249 11.7016 10.8333 11.7016H9.38889V8.45544C9.38889 7.93888 9.16062 7.44349 8.75429 7.07823C8.34797 6.71297 7.79687 6.50777 7.22224 6.50777H5.7778C5.20317 6.50777 4.65208 6.71297 4.24575 7.07823C3.83943 7.44349 3.61115 7.93888 3.61115 8.45544V11.7016H2.16672C1.97518 11.7016 1.79148 11.6332 1.65604 11.5114C1.52059 11.3896 1.4445 11.2245 1.4445 11.0523V5.37163C1.44463 5.27945 1.4666 5.18835 1.50894 5.10439C1.55128 5.02044 1.61302 4.94555 1.69006 4.88471L6.02336 1.47629C6.15516 1.37221 6.32459 1.31481 6.50002 1.31481C6.67545 1.31481 6.84489 1.37221 6.97669 1.47629L11.31 4.88471C11.387 4.94555 11.4488 5.02044 11.4911 5.10439C11.5334 5.18835 11.5554 5.27945 11.5555 5.37163V11.0523Z" fill="#5E5F68"/>
</svg>
