<svg width="21" height="21" viewBox="0 0 21 21" fill="none" xmlns="http://www.w3.org/2000/svg">
<circle cx="10.5" cy="10.5" r="10.5" fill="white"/>
<path d="M7.90032 8.59983C7.77176 8.59983 7.64609 8.63501 7.5392 8.70094C7.43231 8.76687 7.349 8.86058 7.2998 8.97022C7.2506 9.07985 7.23773 9.20049 7.26281 9.31688C7.28789 9.43327 7.3498 9.54018 7.4407 9.62409C7.5316 9.708 7.64742 9.76515 7.77351 9.7883C7.8996 9.81145 8.03029 9.79957 8.14906 9.75415C8.26784 9.70874 8.36935 9.63184 8.44078 9.53317C8.5122 9.4345 8.55032 9.31849 8.55032 9.19983C8.55032 9.0407 8.48184 8.88808 8.35994 8.77556C8.23804 8.66304 8.07271 8.59983 7.90032 8.59983V8.59983ZM10.5 5C9.21442 5 7.95771 5.35189 6.8888 6.01118C5.81988 6.67047 4.98676 7.60754 4.49479 8.7039C4.00282 9.80026 3.87409 11.0067 4.1249 12.1705C4.3757 13.3344 4.99477 14.4035 5.90381 15.2426C6.81285 16.0818 7.97104 16.6532 9.23191 16.8847C10.4928 17.1162 11.7997 16.9974 12.9874 16.5433C14.1752 16.0891 15.1903 15.3201 15.9046 14.3334C16.6188 13.3467 17 12.1867 17 11C16.998 9.40927 16.3125 7.88424 15.094 6.75942C13.8754 5.63461 12.2233 5.00187 10.5 5V5ZM10.5 15.8C9.47154 15.8 8.46617 15.5185 7.61104 14.9911C6.7559 14.4636 6.0894 13.714 5.69583 12.8369C5.30225 11.9598 5.19928 10.9947 5.39992 10.0636C5.60056 9.13246 6.09581 8.27718 6.82305 7.60589C7.55028 6.93459 8.47683 6.47744 9.48553 6.29223C10.4942 6.10702 11.5398 6.20208 12.49 6.56538C13.4401 6.92868 14.2523 7.54391 14.8236 8.33326C15.395 9.12262 15.7 10.0506 15.7 11C15.6984 12.2726 15.1501 13.4926 14.1752 14.3925C13.2004 15.2924 11.8786 15.7985 10.5 15.8V15.8ZM9.85032 9.79983C9.72176 9.79983 9.59609 9.83501 9.4892 9.90094C9.38231 9.96687 9.299 10.0606 9.2498 10.1702C9.2006 10.2799 9.18773 10.4005 9.21281 10.5169C9.23789 10.6333 9.2998 10.7402 9.3907 10.8241C9.4816 10.908 9.59742 10.9651 9.72351 10.9883C9.8496 11.0114 9.98029 10.9996 10.0991 10.9542C10.2178 10.9087 10.3194 10.8318 10.3908 10.7332C10.4622 10.6345 10.5003 10.5185 10.5003 10.3998C10.5003 10.2407 10.4318 10.0881 10.3099 9.97556C10.188 9.86304 10.0227 9.79983 9.85032 9.79983ZM9.85032 7.39983C9.72176 7.39983 9.59609 7.43502 9.4892 7.50094C9.38231 7.56687 9.299 7.66058 9.2498 7.77022C9.2006 7.87985 9.18773 8.00049 9.21281 8.11688C9.23789 8.23327 9.2998 8.34018 9.3907 8.42409C9.4816 8.508 9.59742 8.56515 9.72351 8.5883C9.8496 8.61145 9.98029 8.59957 10.0991 8.55415C10.2178 8.50874 10.3194 8.43184 10.3908 8.33317C10.4622 8.2345 10.5003 8.11849 10.5003 7.99983C10.5003 7.8407 10.4318 7.68808 10.3099 7.57556C10.188 7.46304 10.0227 7.39983 9.85032 7.39983Z" fill="#3C3C3C"/>
</svg>
