<svg width="17" height="4" viewBox="0 0 17 4" fill="none" xmlns="http://www.w3.org/2000/svg">
<path d="M1.7 0C2.03623 0 2.3649 0.0997033 2.64447 0.286502C2.92403 0.4733 3.14192 0.738804 3.27059 1.04944C3.39926 1.36007 3.43293 1.70189 3.36733 2.03165C3.30174 2.36142 3.13983 2.66433 2.90208 2.90208C2.66433 3.13983 2.36142 3.30174 2.03165 3.36733C1.70188 3.43293 1.36007 3.39926 1.04944 3.2706C0.738801 3.14193 0.473297 2.92403 0.286499 2.64447C0.0997006 2.36491 -1.90735e-06 2.03623 -1.90735e-06 1.7C-1.90735e-06 1.24913 0.179103 0.81673 0.497915 0.497918C0.816727 0.179107 1.24913 0 1.7 0ZM8.5 0C8.83623 0 9.1649 0.0997033 9.44447 0.286502C9.72403 0.4733 9.94193 0.738804 10.0706 1.04944C10.1993 1.36007 10.2329 1.70189 10.1673 2.03165C10.1017 2.36142 9.93983 2.66433 9.70208 2.90208C9.46433 3.13983 9.16142 3.30174 8.83165 3.36733C8.50188 3.43293 8.16007 3.39926 7.84944 3.2706C7.5388 3.14193 7.2733 2.92403 7.0865 2.64447C6.8997 2.36491 6.8 2.03623 6.8 1.7C6.8 1.24913 6.9791 0.81673 7.29792 0.497918C7.61673 0.179107 8.04913 0 8.5 0ZM15.3 0C15.6362 0 15.9649 0.0997033 16.2445 0.286502C16.524 0.4733 16.7419 0.738804 16.8706 1.04944C16.9993 1.36007 17.0329 1.70189 16.9673 2.03165C16.9017 2.36142 16.7398 2.66433 16.5021 2.90208C16.2643 3.13983 15.9614 3.30174 15.6317 3.36733C15.3019 3.43293 14.9601 3.39926 14.6494 3.2706C14.3388 3.14193 14.0733 2.92403 13.8865 2.64447C13.6997 2.36491 13.6 2.03623 13.6 1.7C13.6 1.24913 13.7791 0.81673 14.0979 0.497918C14.4167 0.179107 14.8491 0 15.3 0Z" fill="black"/>
</svg>
