<svg width="21" height="21" viewBox="0 0 21 21" fill="none" xmlns="http://www.w3.org/2000/svg">
<circle cx="10.5" cy="10.5" r="10.5" fill="white"/>
<path d="M8.4375 9.2H9.125C9.30734 9.2 9.4822 9.13152 9.61114 9.00962C9.74007 8.88772 9.8125 8.72239 9.8125 8.55C9.8125 8.37761 9.74007 8.21228 9.61114 8.09038C9.4822 7.96848 9.30734 7.9 9.125 7.9H8.4375C8.25516 7.9 8.0803 7.96848 7.95136 8.09038C7.82243 8.21228 7.75 8.37761 7.75 8.55C7.75 8.72239 7.82243 8.88772 7.95136 9.00962C8.0803 9.13152 8.25516 9.2 8.4375 9.2V9.2ZM8.4375 10.5C8.25516 10.5 8.0803 10.5685 7.95136 10.6904C7.82243 10.8123 7.75 10.9776 7.75 11.15C7.75 11.3224 7.82243 11.4877 7.95136 11.6096C8.0803 11.7315 8.25516 11.8 8.4375 11.8H12.5625C12.7448 11.8 12.9197 11.7315 13.0486 11.6096C13.1776 11.4877 13.25 11.3224 13.25 11.15C13.25 10.9776 13.1776 10.8123 13.0486 10.6904C12.9197 10.5685 12.7448 10.5 12.5625 10.5H8.4375ZM16 8.511C15.9928 8.45129 15.979 8.39246 15.9588 8.3355V8.277C15.9257 8.21017 15.8816 8.14873 15.8281 8.095V8.095L11.7031 4.195C11.6463 4.14444 11.5813 4.10275 11.5106 4.0715C11.4901 4.06874 11.4693 4.06874 11.4488 4.0715C11.3789 4.03363 11.3018 4.00932 11.2219 4H7.0625C6.51549 4 5.99089 4.20545 5.60409 4.57114C5.2173 4.93684 5 5.43283 5 5.95V15.05C5 15.5672 5.2173 16.0632 5.60409 16.4289C5.99089 16.7946 6.51549 17 7.0625 17H13.9375C14.4845 17 15.0091 16.7946 15.3959 16.4289C15.7827 16.0632 16 15.5672 16 15.05V8.55C16 8.55 16 8.55 16 8.511ZM11.875 6.2165L13.6556 7.9H12.5625C12.3802 7.9 12.2053 7.83152 12.0764 7.70962C11.9474 7.58772 11.875 7.42239 11.875 7.25V6.2165ZM14.625 15.05C14.625 15.2224 14.5526 15.3877 14.4236 15.5096C14.2947 15.6315 14.1198 15.7 13.9375 15.7H7.0625C6.88016 15.7 6.7053 15.6315 6.57636 15.5096C6.44743 15.3877 6.375 15.2224 6.375 15.05V5.95C6.375 5.77761 6.44743 5.61228 6.57636 5.49038C6.7053 5.36848 6.88016 5.3 7.0625 5.3H10.5V7.25C10.5 7.76717 10.7173 8.26316 11.1041 8.62886C11.4909 8.99455 12.0155 9.2 12.5625 9.2H14.625V15.05ZM12.5625 13.1H8.4375C8.25516 13.1 8.0803 13.1685 7.95136 13.2904C7.82243 13.4123 7.75 13.5776 7.75 13.75C7.75 13.9224 7.82243 14.0877 7.95136 14.2096C8.0803 14.3315 8.25516 14.4 8.4375 14.4H12.5625C12.7448 14.4 12.9197 14.3315 13.0486 14.2096C13.1776 14.0877 13.25 13.9224 13.25 13.75C13.25 13.5776 13.1776 13.4123 13.0486 13.2904C12.9197 13.1685 12.7448 13.1 12.5625 13.1Z" fill="#3C3C3C"/>
</svg>
