<svg width="21" height="20" viewBox="0 0 21 20" fill="none" xmlns="http://www.w3.org/2000/svg">
<path d="M10.5588 19.8131L2.68283 11.7231C2.65492 11.6945 2.62981 11.6634 2.60783 11.6301C1.53658 10.4091 0.962697 8.8305 0.999734 7.20663C1.03677 5.58275 1.68203 4.03194 2.80783 2.86108C3.8613 1.76577 5.28726 1.10539 6.804 1.01041C8.32074 0.915431 9.81794 1.39275 10.9998 2.34808C12.1814 1.39401 13.6778 0.917609 15.1935 1.01295C16.7092 1.1083 18.1341 1.76846 19.1868 2.86308C20.3133 4.03378 20.9591 5.58486 20.9961 7.20911C21.0331 8.83335 20.4588 10.4123 19.3868 11.6331C19.365 11.6656 19.3402 11.6961 19.3128 11.7241L11.4368 19.8141C11.3431 19.9109 11.2201 19.9742 11.0868 19.9941C11.058 19.9981 11.0289 20.0001 10.9998 20.0001C10.9175 20.0005 10.8359 19.9842 10.7601 19.952C10.6842 19.9199 10.6158 19.8726 10.5588 19.8131Z" fill="#555555"/>
</svg>
