<svg width="66" height="66" viewBox="0 0 66 66" fill="none" xmlns="http://www.w3.org/2000/svg">
<path d="M52.25 27.5C51.5207 27.5 50.8212 27.7897 50.3055 28.3055C49.7897 28.8212 49.5 29.5207 49.5 30.25V39.545L45.43 35.475C43.9929 34.0492 42.0506 33.2492 40.0263 33.2492C38.0019 33.2492 36.0596 34.0492 34.6225 35.475L32.6975 37.4275L25.8775 30.58C24.4404 29.1542 22.4981 28.3542 20.4738 28.3542C18.4494 28.3542 16.5071 29.1542 15.07 30.58L11 34.6775V19.25C11 18.5207 11.2897 17.8212 11.8055 17.3055C12.3212 16.7897 13.0207 16.5 13.75 16.5H35.75C36.4793 16.5 37.1788 16.2103 37.6945 15.6945C38.2103 15.1788 38.5 14.4793 38.5 13.75C38.5 13.0207 38.2103 12.3212 37.6945 11.8055C37.1788 11.2897 36.4793 11 35.75 11H13.75C11.562 11 9.46354 11.8692 7.91637 13.4164C6.36919 14.9635 5.5 17.062 5.5 19.25V52.855C5.50725 54.8803 6.31503 56.8207 7.74717 58.2528C9.17932 59.685 11.1197 60.4928 13.145 60.5H47.355C48.1002 60.4941 48.8408 60.383 49.555 60.17V60.17C51.143 59.7246 52.5409 58.7705 53.5344 57.4541C54.5279 56.1377 55.0621 54.5317 55.055 52.8825V30.25C55.0551 29.8842 54.9822 29.522 54.8405 29.1848C54.6989 28.8475 54.4914 28.5418 54.2302 28.2858C53.969 28.0297 53.6593 27.8283 53.3193 27.6933C52.9793 27.5584 52.6157 27.4927 52.25 27.5ZM13.75 55C13.0207 55 12.3212 54.7103 11.8055 54.1945C11.2897 53.6788 11 52.9793 11 52.25V42.4325L18.9475 34.485C19.3494 34.0853 19.8932 33.861 20.46 33.861C21.0268 33.861 21.5706 34.0853 21.9725 34.485L42.515 55H13.75ZM49.5 52.25C49.4823 52.7825 49.3104 53.2984 49.005 53.735L36.575 41.25L38.5275 39.325C38.7247 39.1238 38.96 38.9639 39.2197 38.8548C39.4794 38.7457 39.7583 38.6894 40.04 38.6894C40.3217 38.6894 40.6006 38.7457 40.8603 38.8548C41.12 38.9639 41.3553 39.1238 41.5525 39.325L49.5 47.3275V52.25ZM57.75 11H55V8.25C55 7.52065 54.7103 6.82118 54.1945 6.30546C53.6788 5.78973 52.9793 5.5 52.25 5.5C51.5207 5.5 50.8212 5.78973 50.3055 6.30546C49.7897 6.82118 49.5 7.52065 49.5 8.25V11H46.75C46.0207 11 45.3212 11.2897 44.8055 11.8055C44.2897 12.3212 44 13.0207 44 13.75C44 14.4793 44.2897 15.1788 44.8055 15.6945C45.3212 16.2103 46.0207 16.5 46.75 16.5H49.5V19.25C49.5 19.9793 49.7897 20.6788 50.3055 21.1945C50.8212 21.7103 51.5207 22 52.25 22C52.9793 22 53.6788 21.7103 54.1945 21.1945C54.7103 20.6788 55 19.9793 55 19.25V16.5H57.75C58.4793 16.5 59.1788 16.2103 59.6945 15.6945C60.2103 15.1788 60.5 14.4793 60.5 13.75C60.5 13.0207 60.2103 12.3212 59.6945 11.8055C59.1788 11.2897 58.4793 11 57.75 11V11Z" fill="black"/>
</svg>
