<svg width="21" height="21" viewBox="0 0 21 21" fill="none" xmlns="http://www.w3.org/2000/svg">
<circle cx="10.5" cy="10.5" r="10.5" fill="white"/>
<path d="M11.15 8.6H9.85C9.67761 8.6 9.51228 8.67375 9.39038 8.80503C9.26848 8.9363 9.2 9.11435 9.2 9.3C9.2 9.48565 9.26848 9.6637 9.39038 9.79497C9.51228 9.92625 9.67761 10 9.85 10H11.15C11.3224 10 11.4877 9.92625 11.6096 9.79497C11.7315 9.6637 11.8 9.48565 11.8 9.3C11.8 9.11435 11.7315 8.9363 11.6096 8.80503C11.4877 8.67375 11.3224 8.6 11.15 8.6ZM14.4 8.6C14.3981 7.98081 14.2057 7.37975 13.8529 6.89085C13.5001 6.40195 13.0067 6.0528 12.45 5.898V5.1C12.45 4.54305 12.2446 4.0089 11.8789 3.61508C11.5132 3.22125 11.0172 3 10.5 3C9.98283 3 9.48684 3.22125 9.12114 3.61508C8.75545 4.0089 8.55 4.54305 8.55 5.1V5.898C7.99329 6.0528 7.49993 6.40195 7.1471 6.89085C6.79427 7.37975 6.60187 7.98081 6.6 8.6C5.91044 8.6 5.24912 8.895 4.76152 9.4201C4.27393 9.9452 4 10.6574 4 11.4V13.5C4 14.057 4.20545 14.5911 4.57114 14.9849C4.93684 15.3788 5.43283 15.6 5.95 15.6H6.717C6.8511 16.0085 7.09925 16.3623 7.42741 16.6129C7.75557 16.8636 8.14769 16.9988 8.55 17H12.45C12.8523 16.9988 13.2444 16.8636 13.5726 16.6129C13.9008 16.3623 14.1489 16.0085 14.283 15.6H15.05C15.5672 15.6 16.0632 15.3788 16.4289 14.9849C16.7946 14.5911 17 14.057 17 13.5V11.4C17 10.6574 16.7261 9.9452 16.2385 9.4201C15.7509 8.895 15.0896 8.6 14.4 8.6V8.6ZM6.6 14.2H5.95C5.77761 14.2 5.61228 14.1263 5.49038 13.995C5.36848 13.8637 5.3 13.6857 5.3 13.5V11.4C5.3 11.0287 5.43696 10.6726 5.68076 10.4101C5.92456 10.1475 6.25522 10 6.6 10V14.2ZM9.85 5.1C9.85 4.91435 9.91848 4.7363 10.0404 4.60503C10.1623 4.47375 10.3276 4.4 10.5 4.4C10.6724 4.4 10.8377 4.47375 10.9596 4.60503C11.0815 4.7363 11.15 4.91435 11.15 5.1V5.8H9.85V5.1ZM13.1 14.9C13.1 15.0857 13.0315 15.2637 12.9096 15.395C12.7877 15.5263 12.6224 15.6 12.45 15.6H8.55C8.37761 15.6 8.21228 15.5263 8.09038 15.395C7.96848 15.2637 7.9 15.0857 7.9 14.9V14.2C7.9 13.8287 8.03696 13.4726 8.28076 13.2101C8.52456 12.9475 8.85522 12.8 9.2 12.8H11.8C12.1448 12.8 12.4754 12.9475 12.7192 13.2101C12.963 13.4726 13.1 13.8287 13.1 14.2V14.9ZM13.1 11.792C12.7074 11.5375 12.2582 11.4021 11.8 11.4H9.2C8.74178 11.4021 8.2926 11.5375 7.9 11.792V8.6C7.9 8.2287 8.03696 7.8726 8.28076 7.61005C8.52456 7.3475 8.85522 7.2 9.2 7.2H11.8C12.1448 7.2 12.4754 7.3475 12.7192 7.61005C12.963 7.8726 13.1 8.2287 13.1 8.6V11.792ZM15.7 13.5C15.7 13.6857 15.6315 13.8637 15.5096 13.995C15.3877 14.1263 15.2224 14.2 15.05 14.2H14.4V10C14.7448 10 15.0754 10.1475 15.3192 10.4101C15.563 10.6726 15.7 11.0287 15.7 11.4V13.5Z" fill="#3C3C3C"/>
</svg>
