<svg width="21" height="21" viewBox="0 0 21 21" fill="none" xmlns="http://www.w3.org/2000/svg">
<circle cx="10.5" cy="10.5" r="10.5" fill="#ECC64A"/>
<path d="M15.0498 6.11145H14.2178L14.0098 5.40764C13.875 4.99466 13.6248 4.63732 13.2941 4.38511C12.9633 4.13291 12.5684 3.99833 12.1638 4.00002H8.8359C8.42741 4.00084 8.02948 4.14055 7.69827 4.39943C7.36706 4.65831 7.11929 5.02328 6.98994 5.44283L6.78194 6.14664H5.94996C5.4328 6.14664 4.93682 6.36909 4.57113 6.76507C4.20544 7.16104 4 7.69809 4 8.25807V13.8886C4 14.4486 4.20544 14.9856 4.57113 15.3816C4.93682 15.7775 5.4328 16 5.94996 16H15.0498C15.5669 16 16.0629 15.7775 16.4286 15.3816C16.7943 14.9856 16.9997 14.4486 16.9997 13.8886V8.25807C17.004 7.97785 16.9568 7.6995 16.8607 7.43925C16.7647 7.17901 16.6217 6.94207 16.4402 6.74226C16.2587 6.54246 16.0423 6.38378 15.8036 6.27547C15.5648 6.16717 15.3086 6.11141 15.0498 6.11145ZM15.6998 13.8534C15.6998 14.04 15.6313 14.2191 15.5094 14.351C15.3875 14.483 15.2222 14.5572 15.0498 14.5572H5.94996C5.77757 14.5572 5.61225 14.483 5.49035 14.351C5.36845 14.2191 5.29997 14.04 5.29997 13.8534V8.22288C5.29997 8.03622 5.36845 7.8572 5.49035 7.72521C5.61225 7.59322 5.77757 7.51907 5.94996 7.51907H7.24993C7.39167 7.52708 7.53194 7.48464 7.64931 7.39822C7.76667 7.3118 7.85469 7.18616 7.89992 7.04048L8.25091 5.88623C8.29452 5.74644 8.37759 5.62502 8.4884 5.53914C8.5992 5.45326 8.73213 5.40726 8.8684 5.40764H12.1963C12.3326 5.40726 12.4655 5.45326 12.5763 5.53914C12.6871 5.62502 12.7702 5.74644 12.8138 5.88623L13.1648 7.04048C13.2065 7.17473 13.2847 7.29223 13.389 7.37761C13.4934 7.463 13.6191 7.5123 13.7498 7.51907H15.0498C15.2222 7.51907 15.3875 7.59322 15.5094 7.72521C15.6313 7.8572 15.6998 8.03622 15.6998 8.22288V13.8534ZM10.4999 7.51907C9.98564 7.51907 9.48297 7.68418 9.05541 7.99353C8.62785 8.30287 8.29461 8.74255 8.09783 9.25697C7.90104 9.77139 7.84956 10.3374 7.94988 10.8835C8.0502 11.4296 8.29782 11.9313 8.66143 12.325C9.02503 12.7187 9.4883 12.9868 9.99264 13.0955C10.497 13.2041 11.0197 13.1483 11.4948 12.9353C11.9699 12.7222 12.376 12.3613 12.6616 11.8984C12.9473 11.4354 13.0998 10.8911 13.0998 10.3343C13.0998 9.58767 12.8259 8.8716 12.3383 8.34364C11.8507 7.81568 11.1894 7.51907 10.4999 7.51907V7.51907ZM10.4999 11.7419C10.2428 11.7419 9.99142 11.6594 9.77764 11.5047C9.56386 11.35 9.39724 11.1302 9.29885 10.873C9.20045 10.6158 9.17471 10.3328 9.22487 10.0597C9.27503 9.78665 9.39884 9.53584 9.58065 9.33898C9.76245 9.14212 9.99408 9.00806 10.2463 8.95374C10.4984 8.89943 10.7598 8.9273 10.9973 9.03384C11.2349 9.14038 11.4379 9.3208 11.5808 9.55229C11.7236 9.78377 11.7998 10.0559 11.7998 10.3343C11.7998 10.7076 11.6629 11.0657 11.4191 11.3297C11.1753 11.5936 10.8446 11.7419 10.4999 11.7419Z" fill="white"/>
</svg>
