<svg width="17" height="17" viewBox="0 0 17 17" fill="none" xmlns="http://www.w3.org/2000/svg">
<path d="M7.93787 0.282407L1.60524 3.90978C0.915462 4.30489 0.94016 5.30796 1.64855 5.66864L7.98083 8.8928C8.26385 9.0369 8.59849 9.03799 8.88245 8.89575L15.3189 5.67141C16.0351 5.31262 16.0598 4.29943 15.362 3.90614L8.92588 0.278957C8.61893 0.105972 8.2436 0.107282 7.93787 0.282407Z" fill="#5E5F68"/>
<path d="M7.93902 10.1009L5.07877 8.51454C4.41225 8.14488 3.59375 8.62688 3.59375 9.38904V10.519C3.59375 10.8725 3.78036 11.1997 4.08458 11.3797L7.91452 13.6454C8.2325 13.8336 8.62828 13.831 8.94382 13.6389L12.6505 11.3815C12.9485 11.2 13.1303 10.8764 13.1303 10.5274V9.41336C13.1303 8.6457 12.3012 8.16431 11.6345 8.54493L8.91986 10.0948C8.61642 10.2681 8.24458 10.2704 7.93902 10.1009Z" fill="#5E5F68"/>
<path d="M1.52021 11.4471V4.11377H2.62591V11.4471L3.59338 12.6991V16.813H0.552734V12.6991L1.52021 11.4471Z" fill="#5E5F68"/>
</svg>
