<svg width="20" height="19" viewBox="0 0 20 19" fill="none" xmlns="http://www.w3.org/2000/svg">
<path d="M9.28353 0.735835L1.03278 9.20957C0.647251 9.60553 0.927804 10.2703 1.48045 10.2703C1.82552 10.2703 2.10526 10.55 2.10526 10.8951V18C2.10526 18.5523 2.55298 19 3.10526 19H7.42105C7.97334 19 8.42105 18.5523 8.42105 18V15.8919C8.42105 15.3396 8.86877 14.8919 9.42105 14.8919H11.1053C11.6575 14.8919 12.1053 15.3396 12.1053 15.8919V18C12.1053 18.5523 12.553 19 13.1053 19H16.8947C17.447 19 17.8947 18.5523 17.8947 18V10.8951C17.8947 10.55 18.1745 10.2703 18.5196 10.2703C19.0722 10.2703 19.3528 9.60553 18.9672 9.20957L10.7165 0.735835C10.3239 0.332657 9.6761 0.332657 9.28353 0.735835Z" fill="#3C3C3C"/>
</svg>
