<svg width="21" height="22" viewBox="0 0 21 22" fill="none" xmlns="http://www.w3.org/2000/svg">
<path fill-rule="evenodd" clip-rule="evenodd" d="M3.49824 7.25019V18.5002H18.4982V7.25019H3.49824ZM17.2482 3.50019H19.7482C19.915 3.49013 20.082 3.51556 20.2382 3.57482C20.3945 3.63408 20.5363 3.72581 20.6545 3.84395C20.7726 3.9621 20.8644 4.10396 20.9236 4.26018C20.9829 4.4164 21.0083 4.58342 20.9982 4.75019V19.7502C21.0083 19.917 20.9829 20.084 20.9236 20.2402C20.8644 20.3964 20.7726 20.5383 20.6545 20.6564C20.5363 20.7746 20.3945 20.8663 20.2382 20.9256C20.082 20.9848 19.915 21.0103 19.7482 21.0002H2.24824C2.08146 21.0103 1.91445 20.9848 1.75823 20.9256C1.60201 20.8663 1.46014 20.7746 1.342 20.6564C1.22386 20.5383 1.13213 20.3964 1.07287 20.2402C1.01361 20.084 0.988174 19.917 0.998239 19.7502V4.75019C0.988174 4.58342 1.01361 4.4164 1.07287 4.26018C1.13213 4.10396 1.22386 3.9621 1.342 3.84395C1.46014 3.72581 1.60201 3.63408 1.75823 3.57482C1.91445 3.51556 2.08146 3.49013 2.24824 3.50019H4.74824V2.25019C4.73817 2.08342 4.76361 1.9164 4.82287 1.76018C4.88213 1.60396 4.97386 1.4621 5.092 1.34395C5.21014 1.22581 5.35201 1.13408 5.50823 1.07482C5.66445 1.01556 5.83146 0.990127 5.99824 1.00019C6.16502 0.990127 6.33203 1.01556 6.48825 1.07482C6.64447 1.13408 6.78633 1.22581 6.90448 1.34395C7.02262 1.4621 7.11435 1.60396 7.17361 1.76018C7.23287 1.9164 7.2583 2.08342 7.24824 2.25019V3.50019H14.7482V2.25019C14.7482 1.91867 14.8799 1.60073 15.1144 1.36631C15.3488 1.13189 15.6667 1.00019 15.9982 1.00019C16.3298 1.00019 16.6477 1.13189 16.8821 1.36631C17.1165 1.60073 17.2482 1.91867 17.2482 2.25019V3.50019ZM15.9982 16.0002H13.4982V13.5002H15.9982V16.0002ZM12.2482 16.0002H9.74824V13.5002H12.2482V16.0002ZM15.9982 12.2502H13.4982V9.75019H15.9982V12.2502ZM12.2482 12.2502H9.74824V9.75019H12.2482V12.2502ZM8.49824 16.0002H5.99824V13.5002H8.49824V16.0002Z" fill="#5F5D68"/>
</svg>
