<svg width="13" height="14" viewBox="0 0 13 14" fill="none" xmlns="http://www.w3.org/2000/svg">
<path d="M6.50566 14C6.35241 13.9999 6.1995 13.983 6.04946 13.9496C5.62579 13.8824 5.22202 13.7128 4.86868 13.4537C4.51534 13.1945 4.22175 12.8526 4.01017 12.4539H1.44904C1.1342 12.4511 0.82876 12.3389 0.578711 12.134C0.328663 11.9292 0.147592 11.6428 0.0627789 11.3182C-0.0185413 11.0234 -0.0209124 10.7101 0.0559807 10.4139C0.132874 10.1178 0.285943 9.85061 0.4977 9.64302L0.552733 9.59406C0.815823 9.38039 1.02947 9.10477 1.17719 8.78857C1.32492 8.47237 1.4027 8.12407 1.40461 7.77053V5.455C1.40443 4.00867 1.94087 2.62148 2.89583 1.5985C3.8508 0.575526 5.14612 0.000564668 6.497 0C7.84765 0.00037634 9.14287 0.575013 10.0979 1.59755C11.053 2.62009 11.5897 4.00683 11.59 5.45292V7.7733C11.5922 8.1265 11.6701 8.47449 11.8179 8.7903C11.9656 9.10612 12.1791 9.38134 12.442 9.59475L12.4499 9.60186C12.6844 9.80768 12.8553 10.0847 12.94 10.3963C13.0248 10.708 13.0196 11.0398 12.925 11.3483C12.8304 11.6567 12.6509 11.9273 12.41 12.1245C12.1692 12.3217 11.8783 12.4363 11.5755 12.4532H8.99978C8.74698 12.9223 8.38354 13.3121 7.94582 13.5836C7.50811 13.855 7.0115 13.9986 6.50566 14Z" fill="#3C3C3C"/>
</svg>
