<svg width="15" height="17" viewBox="0 0 15 17" fill="none" xmlns="http://www.w3.org/2000/svg">
<rect x="0.5" y="2.5" width="14" height="14" rx="1.5" stroke="#5E5F68"/>
<rect x="2" y="4" width="3" height="3" rx="1" fill="#5E5F68"/>
<rect x="2" y="8" width="3" height="3" rx="1" fill="#5E5F68"/>
<rect x="2" y="12" width="3" height="3" rx="1" fill="#5E5F68"/>
<rect x="6" y="4" width="3" height="3" rx="1" fill="#5E5F68"/>
<rect x="6" y="8" width="3" height="3" rx="1" fill="#5E5F68"/>
<rect x="6" y="12" width="3" height="3" rx="1" fill="#5E5F68"/>
<rect x="10" y="4" width="3" height="3" rx="1" fill="#5E5F68"/>
<rect x="10" y="8" width="3" height="3" rx="1" fill="#5E5F68"/>
<rect x="10" y="12" width="3" height="3" rx="1" fill="#5E5F68"/>
<rect x="4" width="1" height="3" rx="0.5" fill="#5E5F68"/>
<rect x="10" width="1" height="3" rx="0.5" fill="#5E5F68"/>
</svg>
