<svg width="21" height="21" viewBox="0 0 21 21" fill="none" xmlns="http://www.w3.org/2000/svg">
<circle cx="10.5" cy="10.5" r="10.5" fill="white"/>
<path d="M16.2778 6.91088L11.9445 3.49596C11.5472 3.17657 11.033 3 10.5 3C9.96707 3 9.45282 3.17657 9.05559 3.49596L4.72229 6.91088C4.49289 7.0953 4.30983 7.32155 4.1853 7.57454C4.06077 7.82754 3.99762 8.10147 4.00007 8.37812V14.0523C4.00007 14.5689 4.22834 15.0643 4.63467 15.4295C5.04099 15.7948 5.59209 16 6.16672 16H14.8333C15.408 16 15.9591 15.7948 16.3654 15.4295C16.7717 15.0643 17 14.5689 17 14.0523V8.37163C17.0014 8.09607 16.9378 7.82339 16.8133 7.57158C16.6888 7.31977 16.5062 7.09458 16.2778 6.91088V6.91088ZM11.9445 14.7016H9.05559V11.4554C9.05559 11.2833 9.13168 11.1181 9.26712 10.9964C9.40256 10.8746 9.58626 10.8062 9.7778 10.8062H11.2222C11.4138 10.8062 11.5975 10.8746 11.7329 10.9964C11.8684 11.1181 11.9445 11.2833 11.9445 11.4554V14.7016ZM15.5555 14.0523C15.5555 14.2245 15.4795 14.3896 15.344 14.5114C15.2086 14.6332 15.0249 14.7016 14.8333 14.7016H13.3889V11.4554C13.3889 10.9389 13.1606 10.4435 12.7543 10.0782C12.348 9.71297 11.7969 9.50777 11.2222 9.50777H9.7778C9.20317 9.50777 8.65208 9.71297 8.24575 10.0782C7.83943 10.4435 7.61115 10.9389 7.61115 11.4554V14.7016H6.16672C5.97518 14.7016 5.79148 14.6332 5.65604 14.5114C5.52059 14.3896 5.4445 14.2245 5.4445 14.0523V8.37163C5.44463 8.27945 5.4666 8.18835 5.50894 8.10439C5.55128 8.02044 5.61302 7.94555 5.69006 7.88471L10.0234 4.47629C10.1552 4.37221 10.3246 4.31481 10.5 4.31481C10.6755 4.31481 10.8449 4.37221 10.9767 4.47629L15.31 7.88471C15.387 7.94555 15.4488 8.02044 15.4911 8.10439C15.5334 8.18835 15.5554 8.27945 15.5555 8.37163V14.0523Z" fill="#3C3C3C"/>
</svg>
