<svg width="20" height="21" viewBox="0 0 20 21" fill="none" xmlns="http://www.w3.org/2000/svg">
<path d="M9.28353 1.73583L1.03278 10.2096C0.647251 10.6055 0.927804 11.2703 1.48045 11.2703C1.82552 11.2703 2.10526 11.55 2.10526 11.8951V19C2.10526 19.5523 2.55298 20 3.10526 20H7.42105C7.97334 20 8.42105 19.5523 8.42105 19V16.8919C8.42105 16.3396 8.86877 15.8919 9.42105 15.8919H11.1053C11.6575 15.8919 12.1053 16.3396 12.1053 16.8919V19C12.1053 19.5523 12.553 20 13.1053 20H16.8947C17.447 20 17.8947 19.5523 17.8947 19V11.8951C17.8947 11.55 18.1745 11.2703 18.5196 11.2703C19.0722 11.2703 19.3528 10.6055 18.9672 10.2096L10.7165 1.73584C10.3239 1.33266 9.6761 1.33266 9.28353 1.73583Z" stroke="black"/>
</svg>
