<svg width="26" height="28" viewBox="0 0 26 28" fill="none" xmlns="http://www.w3.org/2000/svg">
<path d="M16.43 9.33625L10.8888 15.2488L8.7575 12.98C8.64171 12.8361 8.49922 12.7192 8.33897 12.6366C8.17872 12.5541 8.00417 12.5077 7.82628 12.5004C7.6484 12.4931 7.47101 12.525 7.30525 12.5941C7.1395 12.6633 6.98896 12.7681 6.86308 12.9021C6.7372 13.0361 6.6387 13.1964 6.57377 13.3728C6.50883 13.5493 6.47885 13.7381 6.48572 13.9274C6.4926 14.1168 6.53616 14.3026 6.61369 14.4732C6.69122 14.6438 6.80104 14.7955 6.93626 14.9188L9.97167 18.1638C10.0924 18.2912 10.2355 18.392 10.3929 18.4604C10.5502 18.5289 10.7188 18.5635 10.8888 18.5625C11.2276 18.561 11.5523 18.4178 11.7929 18.1638L18.2513 11.2888C18.3723 11.1609 18.4684 11.0088 18.534 10.8413C18.5996 10.6737 18.6333 10.494 18.6333 10.3125C18.6333 10.131 18.5996 9.95126 18.534 9.78371C18.4684 9.61615 18.3723 9.46407 18.2513 9.33625C18.0092 9.08015 17.6819 8.93641 17.3406 8.93641C16.9994 8.93641 16.672 9.08015 16.43 9.33625ZM12.9167 0C10.362 0 7.86469 0.806423 5.74056 2.31729C3.61642 3.82816 1.96086 5.97562 0.983229 8.4881C0.00559659 11.0006 -0.250196 13.7653 0.248196 16.4325C0.746588 19.0997 1.97678 21.5497 3.78321 23.4727C5.58964 25.3957 7.89117 26.7053 10.3968 27.2358C12.9023 27.7663 15.4995 27.494 17.8597 26.4533C20.2199 25.4126 22.2372 23.6503 23.6565 21.3891C25.0758 19.1279 25.8333 16.4695 25.8333 13.75C25.8333 11.9443 25.4992 10.1563 24.8501 8.4881C24.201 6.81988 23.2496 5.30409 22.0501 4.02728C20.8507 2.75048 19.4268 1.73766 17.8597 1.04666C16.2925 0.355654 14.6129 0 12.9167 0V0ZM12.9167 24.75C10.8729 24.75 8.87509 24.1049 7.17578 22.8962C5.47647 21.6875 4.15202 19.9695 3.36992 17.9595C2.58781 15.9495 2.38318 13.7378 2.78189 11.604C3.18061 9.47022 4.16476 7.5102 5.6099 5.97183C7.05504 4.43345 8.89627 3.3858 10.9007 2.96136C12.9052 2.53692 14.9829 2.75476 16.8711 3.58733C18.7592 4.41989 20.3731 5.82979 21.5085 7.63873C22.644 9.44767 23.25 11.5744 23.25 13.75C23.25 16.6674 22.1613 19.4653 20.2234 21.5282C18.2856 23.5911 15.6572 24.75 12.9167 24.75V24.75Z" fill="#C4C4C4"/>
</svg>
