<svg width="20" height="22" viewBox="0 0 20 22" fill="none" xmlns="http://www.w3.org/2000/svg">
<path d="M19.2097 19.8879V10.401C19.2097 10.1623 19.1149 9.93331 18.9461 9.76453C18.7773 9.59574 18.5484 9.50098 18.3097 9.50098H14.0577V6.92395C14.0578 6.80423 14.0258 6.68671 13.9652 6.5835C13.9045 6.48028 13.8173 6.39508 13.7127 6.33691L10.2567 4.40991C10.2375 4.39926 10.2178 4.38965 10.1977 4.38098H9.66067C9.64067 4.38998 9.62171 4.39891 9.60171 4.40991L6.14669 6.33691C6.04205 6.39508 5.95485 6.48028 5.89419 6.5835C5.83353 6.68671 5.80157 6.80423 5.80166 6.92395V9.50391H1.54568C1.30699 9.50391 1.07805 9.5988 0.909267 9.76758C0.740484 9.93636 0.645656 10.1652 0.645656 10.4039V19.8879C0.417953 19.9923 0.232728 20.1712 0.120509 20.3951C0.00829071 20.6191 -0.0241741 20.8745 0.0285293 21.1194C0.0812327 21.3642 0.215897 21.5839 0.410304 21.7418C0.604711 21.8997 0.847218 21.9865 1.09768 21.9879H18.7577C19.0081 21.9865 19.2506 21.8997 19.445 21.7418C19.6394 21.5839 19.7741 21.3642 19.8268 21.1194C19.8795 20.8745 19.8471 20.6191 19.7349 20.3951C19.6227 20.1712 19.4374 19.9923 19.2097 19.8879ZM9.92971 6.9259C10.2222 6.9259 10.5081 7.01266 10.7514 7.17517C10.9946 7.33769 11.1842 7.56874 11.2961 7.83899C11.408 8.10924 11.4373 8.40658 11.3803 8.69348C11.3232 8.98038 11.1823 9.24396 10.9755 9.45081C10.7686 9.65765 10.5051 9.79852 10.2182 9.85559C9.93133 9.91266 9.63393 9.8833 9.36367 9.77136C9.09342 9.65942 8.86243 9.4699 8.69992 9.22668C8.5374 8.98346 8.45071 8.69743 8.45071 8.40491C8.45071 8.21068 8.48893 8.01843 8.56326 7.83899C8.63758 7.65955 8.74654 7.49647 8.88388 7.35913C9.02121 7.22179 9.18423 7.1129 9.36367 7.03857C9.54311 6.96425 9.73549 6.9259 9.92971 6.9259ZM4.1127 16.741C4.1127 16.8794 4.0577 17.0122 3.9598 17.1101C3.86191 17.208 3.72911 17.2629 3.59066 17.2629H2.61471C2.47627 17.2629 2.34346 17.208 2.24557 17.1101C2.14768 17.0122 2.09268 16.8794 2.09268 16.741V15.765C2.09268 15.6266 2.14768 15.4938 2.24557 15.3959C2.34346 15.298 2.47627 15.2429 2.61471 15.2429H3.59066C3.72911 15.2429 3.86191 15.298 3.9598 15.3959C4.0577 15.4938 4.1127 15.6266 4.1127 15.765V16.741ZM4.1127 13.604C4.1127 13.7424 4.0577 13.8751 3.9598 13.973C3.86191 14.0709 3.72911 14.126 3.59066 14.126H2.61471C2.47627 14.126 2.34346 14.0709 2.24557 13.973C2.14768 13.8751 2.09268 13.7424 2.09268 13.604V12.6279C2.09268 12.4895 2.14768 12.3568 2.24557 12.2589C2.34346 12.161 2.47627 12.106 2.61471 12.106H3.59066C3.72911 12.106 3.86191 12.161 3.9598 12.2589C4.0577 12.3568 4.1127 12.4895 4.1127 12.6279V13.604ZM7.24966 16.741C7.24966 16.8794 7.19466 17.0122 7.09677 17.1101C6.99887 17.208 6.86613 17.2629 6.72769 17.2629H5.75167C5.61323 17.2629 5.48049 17.208 5.38259 17.1101C5.2847 17.0122 5.2297 16.8794 5.2297 16.741V15.765C5.2297 15.6266 5.2847 15.4938 5.38259 15.3959C5.48049 15.298 5.61323 15.2429 5.75167 15.2429H6.72769C6.86613 15.2429 6.99887 15.298 7.09677 15.3959C7.19466 15.4938 7.24966 15.6266 7.24966 15.765V16.741ZM7.24966 13.604C7.24966 13.7424 7.19466 13.8751 7.09677 13.973C6.99887 14.0709 6.86613 14.126 6.72769 14.126H5.75167C5.61323 14.126 5.48049 14.0709 5.38259 13.973C5.2847 13.8751 5.2297 13.7424 5.2297 13.604V12.6279C5.2297 12.4895 5.2847 12.3568 5.38259 12.2589C5.48049 12.161 5.61323 12.106 5.75167 12.106H6.72769C6.86613 12.106 6.99887 12.161 7.09677 12.2589C7.19466 12.3568 7.24966 12.4895 7.24966 12.6279V13.604ZM11.4147 19.5299C11.4146 19.6208 11.3908 19.7101 11.3457 19.7889H8.51766C8.47256 19.7101 8.44881 19.6208 8.4487 19.5299V15.4149C8.44896 15.3464 8.46269 15.2786 8.48916 15.2153C8.51564 15.1521 8.55433 15.0947 8.60299 15.0464C8.65165 14.9981 8.70936 14.96 8.77279 14.934C8.83622 14.908 8.90413 14.8948 8.97268 14.895H10.8927C11.0311 14.895 11.1639 14.95 11.2618 15.0479C11.3597 15.1457 11.4147 15.2785 11.4147 15.417V19.5299ZM14.6287 16.741C14.6287 16.8794 14.5737 17.0122 14.4758 17.1101C14.3779 17.208 14.2451 17.2629 14.1067 17.2629H13.1307C12.9923 17.2629 12.8595 17.208 12.7616 17.1101C12.6637 17.0122 12.6087 16.8794 12.6087 16.741V15.765C12.6087 15.6266 12.6637 15.4938 12.7616 15.3959C12.8595 15.298 12.9923 15.2429 13.1307 15.2429H14.1067C14.2451 15.2429 14.3779 15.298 14.4758 15.3959C14.5737 15.4938 14.6287 15.6266 14.6287 15.765V16.741ZM14.6287 13.604C14.6287 13.7424 14.5737 13.8751 14.4758 13.973C14.3779 14.0709 14.2451 14.126 14.1067 14.126H13.1307C12.9923 14.126 12.8595 14.0709 12.7616 13.973C12.6637 13.8751 12.6087 13.7424 12.6087 13.604V12.6279C12.6087 12.4895 12.6637 12.3568 12.7616 12.2589C12.8595 12.161 12.9923 12.106 13.1307 12.106H14.1067C14.2451 12.106 14.3779 12.161 14.4758 12.2589C14.5737 12.3568 14.6287 12.4895 14.6287 12.6279V13.604ZM17.7657 16.741C17.7657 16.8095 17.7522 16.8773 17.726 16.9407C17.6997 17.004 17.6613 17.0616 17.6128 17.1101C17.5643 17.1586 17.5068 17.197 17.4434 17.2233C17.3801 17.2495 17.3122 17.2629 17.2437 17.2629H16.2677C16.1292 17.2629 15.9965 17.208 15.8986 17.1101C15.8007 17.0122 15.7457 16.8794 15.7457 16.741V15.765C15.7457 15.6266 15.8007 15.4938 15.8986 15.3959C15.9965 15.298 16.1292 15.2429 16.2677 15.2429H17.2437C17.3122 15.2429 17.3801 15.2565 17.4434 15.2827C17.5068 15.3089 17.5643 15.3474 17.6128 15.3959C17.6613 15.4443 17.6997 15.5019 17.726 15.5652C17.7522 15.6285 17.7657 15.6965 17.7657 15.765V16.741ZM17.7657 13.604C17.7657 13.6726 17.7522 13.7404 17.726 13.8037C17.6997 13.867 17.6613 13.9246 17.6128 13.973C17.5643 14.0215 17.5068 14.0599 17.4434 14.0862C17.3801 14.1124 17.3122 14.126 17.2437 14.126H16.2677C16.1292 14.126 15.9965 14.0709 15.8986 13.973C15.8007 13.8751 15.7457 13.7424 15.7457 13.604V12.6279C15.7457 12.4895 15.8007 12.3568 15.8986 12.2589C15.9965 12.161 16.1292 12.106 16.2677 12.106H17.2437C17.3122 12.106 17.3801 12.1195 17.4434 12.1458C17.5068 12.172 17.5643 12.2104 17.6128 12.2589C17.6613 12.3074 17.6997 12.3649 17.726 12.4282C17.7522 12.4916 17.7657 12.5594 17.7657 12.6279V13.604Z" fill="url(#paint0_linear)"/>
<path d="M9.87991 4.0329C9.89461 4.04305 9.9121 4.04853 9.92996 4.04853C9.94782 4.04853 9.96525 4.04305 9.97995 4.0329C10.0519 3.9949 11.8209 3.01886 11.8209 1.99286C11.8209 1.85222 11.7932 1.71301 11.7394 1.58307C11.6856 1.45313 11.6067 1.33499 11.5072 1.23554C11.4078 1.13609 11.2897 1.0573 11.1598 1.00348C11.0298 0.949659 10.8906 0.921938 10.7499 0.921938C10.5945 0.921275 10.4408 0.95476 10.2998 1.02008C10.1588 1.08541 10.0339 1.1809 9.93393 1.29987C9.83463 1.18009 9.70986 1.08401 9.56869 1.01862C9.42752 0.953222 9.27352 0.920226 9.11795 0.921938C8.8339 0.921938 8.56147 1.03469 8.36062 1.23554C8.15977 1.43639 8.0469 1.70881 8.0469 1.99286C8.0389 3.00886 9.80791 3.9979 9.87991 4.0329Z" fill="url(#paint1_linear)"/>
<defs>
<linearGradient id="paint0_linear" x1="174.9" y1="85.8483" x2="-60.0107" y2="-161.854" gradientUnits="userSpaceOnUse">
<stop stop-color="#FF6C6C"/>
<stop offset="1" stop-color="#FF936C"/>
</linearGradient>
<linearGradient id="paint1_linear" x1="41.304" y1="15.3889" x2="-0.164201" y2="-31.4332" gradientUnits="userSpaceOnUse">
<stop stop-color="#FF6C6C"/>
<stop offset="1" stop-color="#FF936C"/>
</linearGradient>
</defs>
</svg>
