<svg width="85" height="23" viewBox="0 0 85 23" fill="none" xmlns="http://www.w3.org/2000/svg">
<path d="M0.82 0.999999H10C12.24 0.999999 14.23 1.44 15.97 2.32C17.71 3.18 19.06 4.41 20.02 6.01C20.98 7.59 21.46 9.42 21.46 11.5C21.46 13.58 20.98 15.42 20.02 17.02C19.06 18.6 17.71 19.83 15.97 20.71C14.23 21.57 12.24 22 10 22H0.82V0.999999ZM9.82 18.7C11.36 18.7 12.71 18.41 13.87 17.83C15.05 17.23 15.95 16.39 16.57 15.31C17.21 14.21 17.53 12.94 17.53 11.5C17.53 10.06 17.21 8.8 16.57 7.72C15.95 6.62 15.05 5.78 13.87 5.2C12.71 4.6 11.36 4.3 9.82 4.3H4.72V18.7H9.82ZM40.9052 18.73V22H25.1552V0.999999H40.4852V4.27H29.0552V9.73H39.1952V12.94H29.0552V18.73H40.9052ZM51.3128 22.3C49.6928 22.3 48.1228 22.07 46.6028 21.61C45.1028 21.15 43.9128 20.54 43.0328 19.78L44.3828 16.75C45.2428 17.43 46.2928 17.99 47.5328 18.43C48.7928 18.85 50.0528 19.06 51.3128 19.06C52.8728 19.06 54.0328 18.81 54.7928 18.31C55.5728 17.81 55.9628 17.15 55.9628 16.33C55.9628 15.73 55.7428 15.24 55.3028 14.86C54.8828 14.46 54.3428 14.15 53.6828 13.93C53.0228 13.71 52.1228 13.46 50.9828 13.18C49.3828 12.8 48.0828 12.42 47.0828 12.04C46.1028 11.66 45.2528 11.07 44.5328 10.27C43.8328 9.45 43.4828 8.35 43.4828 6.97C43.4828 5.81 43.7928 4.76 44.4128 3.82C45.0528 2.86 46.0028 2.1 47.2628 1.54C48.5428 0.979999 50.1028 0.699999 51.9428 0.699999C53.2228 0.699999 54.4828 0.859999 55.7228 1.18C56.9628 1.5 58.0328 1.96 58.9328 2.56L57.7028 5.59C56.7828 5.05 55.8228 4.64 54.8228 4.36C53.8228 4.08 52.8528 3.94 51.9128 3.94C50.3728 3.94 49.2228 4.2 48.4628 4.72C47.7228 5.24 47.3528 5.93 47.3528 6.79C47.3528 7.39 47.5628 7.88 47.9828 8.26C48.4228 8.64 48.9728 8.94 49.6328 9.16C50.2928 9.38 51.1928 9.63 52.3328 9.91C53.8928 10.27 55.1728 10.65 56.1728 11.05C57.1728 11.43 58.0228 12.02 58.7228 12.82C59.4428 13.62 59.8028 14.7 59.8028 16.06C59.8028 17.22 59.4828 18.27 58.8428 19.21C58.2228 20.15 57.2728 20.9 55.9928 21.46C54.7128 22.02 53.1528 22.3 51.3128 22.3ZM73.03 22.3C70.89 22.3 68.96 21.84 67.24 20.92C65.52 19.98 64.17 18.69 63.19 17.05C62.21 15.39 61.72 13.54 61.72 11.5C61.72 9.46 62.21 7.62 63.19 5.98C64.17 4.32 65.52 3.03 67.24 2.11C68.96 1.17 70.89 0.699999 73.03 0.699999C75.17 0.699999 77.1 1.17 78.82 2.11C80.54 3.03 81.89 4.31 82.87 5.95C83.85 7.59 84.34 9.44 84.34 11.5C84.34 13.56 83.85 15.41 82.87 17.05C81.89 18.69 80.54 19.98 78.82 20.92C77.1 21.84 75.17 22.3 73.03 22.3ZM73.03 18.88C74.43 18.88 75.69 18.57 76.81 17.95C77.93 17.31 78.81 16.43 79.45 15.31C80.09 14.17 80.41 12.9 80.41 11.5C80.41 10.1 80.09 8.84 79.45 7.72C78.81 6.58 77.93 5.7 76.81 5.08C75.69 4.44 74.43 4.12 73.03 4.12C71.63 4.12 70.37 4.44 69.25 5.08C68.13 5.7 67.25 6.58 66.61 7.72C65.97 8.84 65.65 10.1 65.65 11.5C65.65 12.9 65.97 14.17 66.61 15.31C67.25 16.43 68.13 17.31 69.25 17.95C70.37 18.57 71.63 18.88 73.03 18.88Z" fill="black"/>
</svg>
