<svg width="30" height="6" viewBox="0 0 30 6" fill="none" xmlns="http://www.w3.org/2000/svg">
<path d="M3 0C3.59334 0 4.17336 0.175947 4.66671 0.505591C5.16006 0.835235 5.54457 1.30377 5.77164 1.85195C5.9987 2.40013 6.05811 3.00333 5.94235 3.58527C5.8266 4.16721 5.54088 4.70176 5.12132 5.12132C4.70176 5.54088 4.16721 5.8266 3.58527 5.94236C3.00333 6.05811 2.40013 5.9987 1.85195 5.77164C1.30377 5.54458 0.835233 5.16006 0.505589 4.66671C0.175944 4.17336 -1.90735e-06 3.59334 -1.90735e-06 3C-1.90735e-06 2.20435 0.316068 1.44129 0.878677 0.87868C1.44129 0.31607 2.20435 0 3 0V0ZM15 0C15.5933 0 16.1734 0.175947 16.6667 0.505591C17.1601 0.835235 17.5446 1.30377 17.7716 1.85195C17.9987 2.40013 18.0581 3.00333 17.9424 3.58527C17.8266 4.16721 17.5409 4.70176 17.1213 5.12132C16.7018 5.54088 16.1672 5.8266 15.5853 5.94236C15.0033 6.05811 14.4001 5.9987 13.8519 5.77164C13.3038 5.54458 12.8352 5.16006 12.5056 4.66671C12.1759 4.17336 12 3.59334 12 3C12 2.20435 12.3161 1.44129 12.8787 0.87868C13.4413 0.31607 14.2043 0 15 0V0ZM27 0C27.5933 0 28.1734 0.175947 28.6667 0.505591C29.1601 0.835235 29.5446 1.30377 29.7716 1.85195C29.9987 2.40013 30.0581 3.00333 29.9424 3.58527C29.8266 4.16721 29.5409 4.70176 29.1213 5.12132C28.7018 5.54088 28.1672 5.8266 27.5853 5.94236C27.0033 6.05811 26.4001 5.9987 25.8519 5.77164C25.3038 5.54458 24.8352 5.16006 24.5056 4.66671C24.1759 4.17336 24 3.59334 24 3C24 2.20435 24.3161 1.44129 24.8787 0.87868C25.4413 0.31607 26.2043 0 27 0V0Z" fill="#FF6C6C"/>
</svg>
