<svg width="21" height="21" viewBox="0 0 21 21" fill="none" xmlns="http://www.w3.org/2000/svg">
<circle cx="10.5" cy="10.5" r="10.5" fill="white"/>
<path d="M10.4916 7.90151C9.97834 7.90151 9.47659 8.05391 9.04982 8.33943C8.62306 8.62496 8.29043 9.03079 8.09401 9.5056C7.89759 9.98041 7.8462 10.5029 7.94633 11.0069C8.04647 11.511 8.29363 11.974 8.65657 12.3374C9.0195 12.7008 9.48191 12.9483 9.98532 13.0486C10.4887 13.1488 11.0105 13.0974 11.4847 12.9007C11.9589 12.704 12.3642 12.371 12.6494 11.9436C12.9345 11.5163 13.0867 11.0139 13.0867 10.5C13.0867 9.81084 12.8133 9.1499 12.3266 8.66259C11.84 8.17528 11.1799 7.90151 10.4916 7.90151V7.90151ZM10.4916 11.7992C10.235 11.7992 9.9841 11.723 9.77071 11.5803C9.55733 11.4375 9.39102 11.2346 9.29281 10.9972C9.1946 10.7598 9.1689 10.4986 9.21897 10.2465C9.26904 9.9945 9.39262 9.763 9.57409 9.58129C9.75555 9.39959 9.98676 9.27585 10.2385 9.22572C10.4902 9.17559 10.7511 9.20132 10.9882 9.29965C11.2253 9.39799 11.4279 9.56452 11.5705 9.77818C11.7131 9.99184 11.7892 10.243 11.7892 10.5C11.7892 10.8446 11.6525 11.175 11.4091 11.4187C11.1658 11.6624 10.8357 11.7992 10.4916 11.7992ZM16.7913 10.0388L15.2667 8.55113V6.3684C15.2667 6.1961 15.1983 6.03087 15.0766 5.90904C14.955 5.78721 14.7899 5.71877 14.6179 5.71877H12.4704L10.9522 4.19216C10.8919 4.13127 10.8202 4.08294 10.7411 4.04996C10.6621 4.01698 10.5773 4 10.4916 4C10.406 4 10.3212 4.01698 10.2421 4.04996C10.163 4.08294 10.0913 4.13127 10.031 4.19216L8.54525 5.71877H6.36534C6.19327 5.71877 6.02825 5.78721 5.90658 5.90904C5.78491 6.03087 5.71655 6.1961 5.71655 6.3684V8.55113L4.19191 10.0388C4.1311 10.0992 4.08283 10.171 4.0499 10.2502C4.01696 10.3293 4 10.4142 4 10.5C4 10.5858 4.01696 10.6707 4.0499 10.7498C4.08283 10.829 4.1311 10.9008 4.19191 10.9612L5.71655 12.4814V14.6316C5.71655 14.8039 5.78491 14.9691 5.90658 15.091C6.02825 15.2128 6.19327 15.2812 6.36534 15.2812H8.54525L10.0634 16.8078C10.1237 16.8687 10.1955 16.9171 10.2745 16.95C10.3536 16.983 10.4384 17 10.524 17C10.6097 17 10.6945 16.983 10.7736 16.95C10.8526 16.9171 10.9244 16.8687 10.9847 16.8078L12.5028 15.2812H14.6503C14.8224 15.2812 14.9874 15.2128 15.1091 15.091C15.2307 14.9691 15.2991 14.8039 15.2991 14.6316V12.4814L16.8237 10.9612C16.8825 10.8987 16.9283 10.8252 16.9584 10.7449C16.9886 10.6645 17.0026 10.579 16.9996 10.4932C16.9966 10.4075 16.9766 10.3231 16.9409 10.2451C16.9051 10.1671 16.8543 10.097 16.7913 10.0388ZM14.1637 11.7538C14.1024 11.8139 14.0537 11.8857 14.0202 11.9649C13.9868 12.044 13.9694 12.1291 13.9691 12.215V13.982H12.2044C12.1186 13.9823 12.0336 13.9997 11.9546 14.0332C11.8755 14.0667 11.8038 14.1155 11.7438 14.1769L10.4916 15.4306L9.23945 14.1769C9.17936 14.1155 9.10771 14.0667 9.02864 14.0332C8.94957 13.9997 8.86465 13.9823 8.77881 13.982H7.01412V12.215C7.01376 12.1291 6.99638 12.044 6.96297 11.9649C6.92956 11.8857 6.88079 11.8139 6.81949 11.7538L5.56733 10.5L6.81949 9.24623C6.88079 9.18606 6.92956 9.11432 6.96297 9.03514C6.99638 8.95597 7.01376 8.87094 7.01412 8.78499V7.01802H8.77881C8.86465 7.01766 8.94957 7.00025 9.02864 6.9668C9.10771 6.93335 9.17936 6.88451 9.23945 6.82313L10.4916 5.56936L11.7438 6.82313C11.8038 6.88451 11.8755 6.93335 11.9546 6.9668C12.0336 7.00025 12.1186 7.01766 12.2044 7.01802H13.9691V8.78499C13.9694 8.87094 13.9868 8.95597 14.0202 9.03514C14.0537 9.11432 14.1024 9.18606 14.1637 9.24623L15.4159 10.5L14.1637 11.7538Z" fill="#3C3C3C"/>
</svg>
