<svg width="21" height="21" viewBox="0 0 21 21" fill="none" xmlns="http://www.w3.org/2000/svg">
<circle cx="10.5" cy="10.5" r="10.5" fill="#448851"/>
<path d="M14.25 5.74963H12.0062L13.4437 4.31838C13.502 4.2601 13.5482 4.19092 13.5798 4.11478C13.6113 4.03864 13.6276 3.95704 13.6276 3.87463C13.6276 3.79222 13.6113 3.71061 13.5798 3.63447C13.5482 3.55833 13.502 3.48915 13.4437 3.43088C13.3855 3.3726 13.3163 3.32638 13.2402 3.29484C13.164 3.2633 13.0824 3.24707 13 3.24707C12.8336 3.24707 12.6739 3.31319 12.5562 3.43088L10.5 5.46213L9.76875 4.21213C9.72771 4.14072 9.67301 4.0781 9.60777 4.02783C9.54253 3.97756 9.46803 3.94064 9.38852 3.91917C9.30901 3.89769 9.22605 3.89209 9.14437 3.90268C9.0627 3.91327 8.98391 3.93984 8.9125 3.98088C8.84109 4.02192 8.77847 4.07662 8.7282 4.14186C8.67794 4.2071 8.64101 4.2816 8.61954 4.36111C8.59807 4.44062 8.59246 4.52358 8.60305 4.60526C8.61364 4.68693 8.64021 4.76572 8.68125 4.83713L9.25 5.74963H6.75C6.25272 5.74963 5.77581 5.94717 5.42417 6.2988C5.07254 6.65043 4.875 7.12735 4.875 7.62463V12.6246C4.875 13.1219 5.07254 13.5988 5.42417 13.9505C5.77581 14.3021 6.25272 14.4996 6.75 14.4996V15.1246C6.75 15.2904 6.81585 15.4494 6.93306 15.5666C7.05027 15.6838 7.20924 15.7496 7.375 15.7496C7.54076 15.7496 7.69973 15.6838 7.81694 15.5666C7.93415 15.4494 8 15.2904 8 15.1246V14.4996H13V15.1246C13 15.2904 13.0658 15.4494 13.1831 15.5666C13.3003 15.6838 13.4592 15.7496 13.625 15.7496C13.7908 15.7496 13.9497 15.6838 14.0669 15.5666C14.1842 15.4494 14.25 15.2904 14.25 15.1246V14.4996C14.7473 14.4996 15.2242 14.3021 15.5758 13.9505C15.9275 13.5988 16.125 13.1219 16.125 12.6246V7.62463C16.125 7.12735 15.9275 6.65043 15.5758 6.2988C15.2242 5.94717 14.7473 5.74963 14.25 5.74963ZM14.875 12.6246C14.875 12.7904 14.8092 12.9494 14.6919 13.0666C14.5747 13.1838 14.4158 13.2496 14.25 13.2496H6.75C6.58424 13.2496 6.42527 13.1838 6.30806 13.0666C6.19085 12.9494 6.125 12.7904 6.125 12.6246V7.62463C6.125 7.45887 6.19085 7.2999 6.30806 7.18269C6.42527 7.06548 6.58424 6.99963 6.75 6.99963H14.25C14.4158 6.99963 14.5747 7.06548 14.6919 7.18269C14.8092 7.2999 14.875 7.45887 14.875 7.62463V12.6246Z" fill="white"/>
</svg>
