<svg width="14" height="14" viewBox="0 0 14 14" fill="none" xmlns="http://www.w3.org/2000/svg">
<path d="M13.5198 6.77235C13.5189 4.97883 12.8068 3.25887 11.5396 1.98967C10.2724 0.720478 8.55358 0.00565966 6.76011 0.00195312C6.21152 0.0027619 5.66497 0.0687961 5.13197 0.198657C3.52908 0.599381 2.12784 1.57203 1.1919 2.93363C0.255959 4.29523 -0.150189 5.95191 0.0498629 7.59202C0.249914 9.23213 1.04239 10.7426 2.27818 11.8393C3.51397 12.936 5.1079 13.5433 6.76011 13.5469C7.1416 13.5469 11.3961 13.3251 12.4299 13.267C12.6237 13.2724 12.8152 13.223 12.9821 13.1243C13.149 13.0257 13.2846 12.8819 13.3733 12.7094C13.462 12.537 13.5002 12.343 13.4834 12.1499C13.4665 11.9567 13.3955 11.7722 13.2783 11.6177L12.4866 10.3718L12.5566 10.2583C13.1891 9.20572 13.5221 8.00038 13.5198 6.77235ZM11.149 10.7127L11.9525 11.9775L11.5858 11.9965C10.8347 12.0357 7.0695 12.2302 6.76011 12.2302C5.42776 12.2292 4.14178 11.741 3.1444 10.8575C2.14701 9.97412 1.50706 8.75646 1.34511 7.43394C1.18315 6.11142 1.51037 4.77534 2.26511 3.67734C3.01985 2.57933 4.15001 1.79521 5.44274 1.47266C5.87396 1.36732 6.31621 1.31373 6.76011 1.31304C7.75775 1.31514 8.73575 1.59057 9.58788 2.10939C10.44 2.6282 11.1337 3.37059 11.5937 4.25591C12.0536 5.14124 12.2621 6.13563 12.1967 7.13115C12.1313 8.12667 11.7943 9.08524 11.2225 9.90274L11.1889 9.94965C11.1044 10.0571 11.0552 10.188 11.048 10.3245C11.0409 10.461 11.0762 10.5963 11.149 10.7119V10.7127Z" fill="#5E5F68"/>
<path d="M9.84153 6.74105C9.84139 6.88642 9.79817 7.02849 9.71729 7.14928C9.63642 7.27007 9.52152 7.36418 9.38717 7.41969C9.25282 7.47519 9.10504 7.48958 8.9625 7.46109C8.81995 7.43259 8.68905 7.36249 8.58636 7.2596C8.48367 7.15671 8.41379 7.02567 8.38556 6.88306C8.35734 6.74046 8.37206 6.59267 8.42782 6.45842C8.48357 6.32417 8.57787 6.20949 8.69881 6.12885C8.81975 6.0482 8.96192 6.00523 9.10729 6.00537C9.20381 6.00546 9.29936 6.02453 9.38849 6.06155C9.47763 6.09858 9.55858 6.15281 9.62676 6.22113C9.69494 6.28945 9.74901 6.37054 9.78586 6.45975C9.82271 6.54896 9.84162 6.64453 9.84153 6.74105Z" fill="#5E5F68"/>
<path d="M7.51397 6.74105C7.51369 6.88622 7.47041 7.02807 7.38956 7.14864C7.30871 7.26921 7.19393 7.36308 7.05974 7.41845C6.92554 7.47381 6.77792 7.48817 6.63558 7.45967C6.49324 7.43118 6.36255 7.36115 6.26 7.2584C6.15745 7.15565 6.08763 7.02478 6.05941 6.88238C6.03119 6.73998 6.04584 6.59243 6.10145 6.45834C6.15707 6.32424 6.25117 6.20964 6.37189 6.12902C6.49261 6.04839 6.63452 6.00537 6.77968 6.00537C6.87623 6.00537 6.97184 6.02439 7.06102 6.06138C7.1502 6.09837 7.23121 6.15258 7.29941 6.22092C7.36762 6.28925 7.42165 6.37037 7.45847 6.45962C7.49529 6.54887 7.51415 6.6445 7.51397 6.74105V6.74105Z" fill="#5E5F68"/>
<path d="M5.1878 6.74105C5.18752 6.88622 5.1442 7.02807 5.06335 7.14864C4.98249 7.26921 4.86776 7.36308 4.73356 7.41845C4.59937 7.47381 4.45175 7.48817 4.30941 7.45967C4.16706 7.43118 4.03638 7.36115 3.93383 7.2584C3.83128 7.15565 3.76146 7.02478 3.73324 6.88238C3.70502 6.73998 3.71966 6.59243 3.77528 6.45834C3.8309 6.32424 3.925 6.20964 4.04572 6.12902C4.16644 6.04839 4.30835 6.00537 4.45351 6.00537C4.55003 6.00546 4.64558 6.02453 4.73472 6.06155C4.82385 6.09858 4.90484 6.15281 4.97303 6.22113C5.04121 6.28945 5.09528 6.37054 5.13213 6.45975C5.16898 6.54896 5.18789 6.64452 5.1878 6.74105Z" fill="#5E5F68"/>
</svg>
