<svg width="10" height="20" viewBox="0 0 10 20" fill="none" xmlns="http://www.w3.org/2000/svg">
<path d="M9.75507 1.46603L2.15507 9.86603L9.56107 18.544C9.63915 18.6241 9.70045 18.7189 9.74135 18.823C9.78225 18.9271 9.80193 19.0383 9.79922 19.1501C9.79652 19.2619 9.7715 19.3721 9.72562 19.4741C9.67974 19.576 9.61393 19.6678 9.53207 19.744C9.35767 19.9093 9.12631 20.001 8.88607 20C8.63741 19.9953 8.40022 19.8946 8.22407 19.719L0.246065 10.441C0.166899 10.362 0.104348 10.268 0.0620972 10.1644C0.0198468 10.0609 -0.00124769 9.94991 5.70294e-05 9.83807C0.00136175 9.72624 0.0250393 9.6158 0.0696941 9.51326C0.114349 9.41072 0.179078 9.31816 0.260065 9.24103L8.45207 0.262027C8.62488 0.0923836 8.85791 -0.00183181 9.10007 2.69911e-05C9.34539 0.000985954 9.58042 0.0987351 9.75407 0.272027C9.91187 0.43058 10.0005 0.645121 10.0007 0.868821C10.0009 1.09252 9.91261 1.30721 9.75507 1.46603Z" fill="#FF6C6C"/>
</svg>
