<svg width="85" height="23" viewBox="0 0 85 23" fill="none" xmlns="http://www.w3.org/2000/svg">
<path d="M0.49305 0.999999H9.67305C11.9131 0.999999 13.9031 1.44 15.6431 2.32C17.3831 3.18 18.7331 4.41 19.6931 6.01C20.6531 7.59 21.1331 9.42 21.1331 11.5C21.1331 13.58 20.6531 15.42 19.6931 17.02C18.7331 18.6 17.3831 19.83 15.6431 20.71C13.9031 21.57 11.9131 22 9.67305 22H0.49305V0.999999ZM9.49305 18.7C11.0331 18.7 12.3831 18.41 13.5431 17.83C14.7231 17.23 15.6231 16.39 16.2431 15.31C16.8831 14.21 17.2031 12.94 17.2031 11.5C17.2031 10.06 16.8831 8.8 16.2431 7.72C15.6231 6.62 14.7231 5.78 13.5431 5.2C12.3831 4.6 11.0331 4.3 9.49305 4.3H4.39305V18.7H9.49305ZM40.5782 18.73V22H24.8282V0.999999H40.1582V4.27H28.7282V9.73H38.8682V12.94H28.7282V18.73H40.5782ZM50.9859 22.3C49.3659 22.3 47.7959 22.07 46.2759 21.61C44.7759 21.15 43.5859 20.54 42.7059 19.78L44.0559 16.75C44.9159 17.43 45.9659 17.99 47.2059 18.43C48.4659 18.85 49.7259 19.06 50.9859 19.06C52.5459 19.06 53.7059 18.81 54.4659 18.31C55.2459 17.81 55.6359 17.15 55.6359 16.33C55.6359 15.73 55.4159 15.24 54.9759 14.86C54.5559 14.46 54.0159 14.15 53.3559 13.93C52.6959 13.71 51.7959 13.46 50.6559 13.18C49.0559 12.8 47.7559 12.42 46.7559 12.04C45.7759 11.66 44.9259 11.07 44.2059 10.27C43.5059 9.45 43.1559 8.35 43.1559 6.97C43.1559 5.81 43.4659 4.76 44.0859 3.82C44.7259 2.86 45.6759 2.1 46.9359 1.54C48.2159 0.979999 49.7759 0.699999 51.6159 0.699999C52.8959 0.699999 54.1559 0.859999 55.3959 1.18C56.6359 1.5 57.7059 1.96 58.6059 2.56L57.3759 5.59C56.4559 5.05 55.4959 4.64 54.4959 4.36C53.4959 4.08 52.5259 3.94 51.5859 3.94C50.0459 3.94 48.8959 4.2 48.1359 4.72C47.3959 5.24 47.0259 5.93 47.0259 6.79C47.0259 7.39 47.2359 7.88 47.6559 8.26C48.0959 8.64 48.6459 8.94 49.3059 9.16C49.9659 9.38 50.8659 9.63 52.0059 9.91C53.5659 10.27 54.8459 10.65 55.8459 11.05C56.8459 11.43 57.6959 12.02 58.3959 12.82C59.1159 13.62 59.4759 14.7 59.4759 16.06C59.4759 17.22 59.1559 18.27 58.5159 19.21C57.8959 20.15 56.9459 20.9 55.6659 21.46C54.3859 22.02 52.8259 22.3 50.9859 22.3ZM72.7031 22.3C70.5631 22.3 68.6331 21.84 66.9131 20.92C65.1931 19.98 63.8431 18.69 62.8631 17.05C61.8831 15.39 61.3931 13.54 61.3931 11.5C61.3931 9.46 61.8831 7.62 62.8631 5.98C63.8431 4.32 65.1931 3.03 66.9131 2.11C68.6331 1.17 70.5631 0.699999 72.7031 0.699999C74.8431 0.699999 76.7731 1.17 78.4931 2.11C80.2131 3.03 81.5631 4.31 82.5431 5.95C83.5231 7.59 84.0131 9.44 84.0131 11.5C84.0131 13.56 83.5231 15.41 82.5431 17.05C81.5631 18.69 80.2131 19.98 78.4931 20.92C76.7731 21.84 74.8431 22.3 72.7031 22.3ZM72.7031 18.88C74.1031 18.88 75.3631 18.57 76.4831 17.95C77.6031 17.31 78.4831 16.43 79.1231 15.31C79.7631 14.17 80.0831 12.9 80.0831 11.5C80.0831 10.1 79.7631 8.84 79.1231 7.72C78.4831 6.58 77.6031 5.7 76.4831 5.08C75.3631 4.44 74.1031 4.12 72.7031 4.12C71.3031 4.12 70.0431 4.44 68.9231 5.08C67.8031 5.7 66.9231 6.58 66.2831 7.72C65.6431 8.84 65.3231 10.1 65.3231 11.5C65.3231 12.9 65.6431 14.17 66.2831 15.31C66.9231 16.43 67.8031 17.31 68.9231 17.95C70.0431 18.57 71.3031 18.88 72.7031 18.88Z" fill="black"/>
</svg>
